<?xml version="1.0" ?><!DOCTYPE svg  PUBLIC '-//W3C//DTD SVG 1.0//EN'  'http://www.w3.org/TR/2001/REC-SVG-20010904/DTD/svg10.dtd'><svg enable-background="new 0 0 100 100" height="100px" id="Layer_1" version="1.0" viewBox="0 0 100 100" width="100px" xml:space="preserve" xmlns="http://www.w3.org/2000/svg" xmlns:xlink="http://www.w3.org/1999/xlink"><path d="M50,9.999c-22.09,0-40,17.905-40,39.995c0,7.8,2.266,15.059,6.13,21.211l-5.876,14.187  c-0.703,1.699,0.104,3.646,1.804,4.355c0.853,0.352,1.764,0.325,2.552,0l14.187-5.879C34.948,87.729,42.2,90.001,50,90.001  c22.087,0,40-17.917,40-40.007S72.087,9.999,50,9.999z M50,83.334c-6.228,0-12.337-1.771-17.663-5.11l-2.916-1.829l-9.929,4.114  l4.114-9.935l-1.829-2.917c-3.347-5.325-5.11-11.433-5.11-17.663c0-18.377,14.954-33.329,33.333-33.329s33.333,14.951,33.333,33.329  C83.333,68.373,68.379,83.334,50,83.334z"/><path d="M64.141,64.135c-2.598,2.604-6.823,2.604-9.431,0c0,0-18.851-18.854-18.848-18.854c-2.604-2.604-2.604-6.823,0-9.427  l4.711-4.712l7.07,11.782l-3.535,3.535l9.424,9.428l3.535-3.535l11.793,7.076L64.141,64.135z"/></svg>